<svg data-v-423bf9ae="" xmlns="http://www.w3.org/2000/svg" viewBox="0 0 350 90" class="iconLeft"><!----><!----><!----><g data-v-423bf9ae="" id="a1ecdfc9-e84f-4501-a8c5-3991e7bd8635" fill="#ffffff" transform="matrix(5.870841979980469,0,0,5.870841979980469,138.30752563476562,-5.900200366973877)"><path d="M11.31 3.92L8.90 3.92L6.36 12.21L3.81 3.92L1.33 3.92L1.33 13.58L2.87 13.58L2.87 8.83C2.87 7.73 2.87 6.43 2.84 5.39C3.11 6.41 3.51 7.73 3.86 8.81L5.43 13.58L7.21 13.58L8.76 8.82C9.13 7.73 9.53 6.40 9.81 5.38C9.79 6.40 9.79 7.73 9.79 8.83L9.79 13.58L11.31 13.58ZM16.49 5.95C13.99 5.95 12.73 7.69 12.73 9.86C12.73 12.03 13.99 13.78 16.49 13.78C18.98 13.78 20.26 12.03 20.26 9.86C20.26 7.69 18.98 5.95 16.49 5.95ZM16.49 12.66C15.13 12.66 14.35 11.54 14.35 9.86C14.35 8.18 15.13 7.07 16.49 7.07C17.84 7.07 18.62 8.18 18.62 9.86C18.62 11.54 17.84 12.66 16.49 12.66ZM24.65 5.95C22.71 5.95 21.06 7.36 21.06 9.90C21.06 12.54 22.53 13.78 24.47 13.78C26.22 13.78 27.51 12.89 27.86 11.12L26.29 11.12C26.07 12.12 25.44 12.66 24.56 12.66C23.52 12.66 22.68 11.80 22.68 9.79C22.68 7.92 23.53 7.07 24.61 7.07C25.52 7.07 26.12 7.59 26.35 8.72L27.90 8.72C27.72 7.08 26.53 5.95 24.65 5.95ZM30.00 3.56C29.48 3.56 29.11 3.93 29.11 4.44C29.11 4.96 29.48 5.33 30.00 5.33C30.52 5.33 30.91 4.96 30.91 4.44C30.91 3.93 30.52 3.56 30.00 3.56ZM30.77 13.58L30.77 6.15L29.23 6.15L29.23 13.58ZM34.58 7.28L36.04 7.28L36.04 6.20L34.58 6.20L34.58 4.42L33.05 4.42L33.05 6.20L32.00 6.20L32.00 7.28L33.05 7.28L33.05 11.31C33.05 11.73 33.05 12.05 33.07 12.31C33.14 13.29 33.64 13.72 34.80 13.72C35.18 13.72 35.55 13.69 35.94 13.64L35.94 12.57C34.93 12.67 34.65 12.52 34.59 11.79C34.58 11.59 34.58 11.42 34.58 11.17Z"></path></g><!----><g data-v-423bf9ae="" id="033ac4a0-9b1f-4f83-a603-011ac89dfe68" transform="matrix(1.2611576318740845,0,0,1.2611576318740845,13.650323867797852,-16.43683433532715)" stroke="none" fill="#07A0B4"><path d="M13.25 53.815v-9.446L1.44 54.403l-11.81 10.043L1.44 74.485l11.81 10.038v-9.446h43.304V53.815zM77.815 23.198L66.009 13.16v8.78H22.697v21.258h43.312v10.12L77.815 43.28 89.63 33.237z"></path></g><!----></svg>